<svg width="32" height="25" viewBox="0 0 32 25" fill="none" xmlns="http://www.w3.org/2000/svg">
<path d="M31.0673 14.407L17.1264 0.466105C16.8278 0.167652 16.4229 0 16.0007 0C15.5785 0 15.1736 0.167652 14.875 0.466105L0.932519 14.4094C0.626893 14.7151 0.386707 15.0798 0.226577 15.4813C0.0664458 15.8829 -0.0102709 16.3128 0.00110261 16.7449C0.0124761 17.177 0.111702 17.6023 0.292732 17.9948C0.473763 18.3874 0.732808 18.7389 1.05409 19.0281L6.7397 24.1467C7.31469 24.6642 8.05836 24.9547 8.83187 24.9642C9.60538 24.9736 10.3559 24.7012 10.9433 24.1979L13.9305 21.6386C14.5072 21.1444 15.2416 20.8728 16.0011 20.8728C16.7606 20.8728 17.495 21.1444 18.0717 21.6386L21.0581 24.1979C21.6456 24.7014 22.3963 24.9739 23.17 24.9645C23.9436 24.9551 24.6875 24.6644 25.2625 24.1467L30.9457 19.0281C31.2671 18.7387 31.5262 18.3869 31.7072 17.9942C31.8883 17.6015 31.9875 17.176 31.9989 16.7437C32.0103 16.3114 31.9335 15.8813 31.7734 15.4796C31.6132 15.0778 31.373 14.7129 31.0673 14.407Z" fill="white"/>
</svg>
