<svg width="32" height="27" viewBox="0 0 32 27" fill="none" xmlns="http://www.w3.org/2000/svg">
<path d="M31.0673 14.407L17.1264 0.466105C16.8278 0.167652 16.4229 0 16.0007 0C15.5785 0 15.1736 0.167652 14.875 0.466105L0.932519 14.4094C0.626893 14.7151 0.386707 15.0798 0.226577 15.4813C0.0664458 15.8829 -0.0102709 16.3128 0.00110261 16.7449C0.0124761 17.177 0.111702 17.6023 0.292732 17.9948C0.473763 18.3874 0.732808 18.7389 1.05409 19.0281L6.7397 24.1467C7.31469 24.6642 8.05836 24.9547 8.83187 24.9642C9.60538 24.9736 10.3559 24.7012 10.9433 24.1979L13.9305 21.6386C14.5072 21.1444 15.2416 20.8728 16.0011 20.8728C16.7606 20.8728 17.495 21.1444 18.0717 21.6386L21.0581 24.1979C21.6456 24.7014 22.3963 24.9739 23.17 24.9645C23.9436 24.9551 24.6875 24.6644 25.2625 24.1467L30.9457 19.0281C31.2671 18.7387 31.5262 18.3869 31.7072 17.9942C31.8883 17.6015 31.9875 17.176 31.9989 16.7437C32.0103 16.3114 31.9335 15.8813 31.7734 15.4796C31.6132 15.0778 31.373 14.7129 31.0673 14.407Z" fill="white"/>
<path d="M25.7728 13.2881C25.9183 12.0669 26.1727 11.7829 26.1727 11.2887C26.1198 10.8512 25.961 10.4332 25.7102 10.0708C25.4593 9.7085 25.124 9.41277 24.7331 9.20926C23.5198 8.53025 21.4036 9.06611 17.2208 10.169C16.7788 10.2941 16.3148 10.3214 15.8611 10.249C15.2611 10.1449 14.7049 9.86676 14.2616 9.44921C16.5979 8.8493 18.8936 8.10132 21.1349 7.20982C23.3823 6.31727 26.0615 4.15307 27.8082 3.21094C28.9279 3.58443 29.3662 5.16159 30.485 5.53429L29.0455 7.45374C27.9058 9.72384 27.0978 12.1457 26.6461 14.6453C26.5162 14.6559 26.3854 14.6401 26.2617 14.5989C26.138 14.5576 26.024 14.4918 25.9263 14.4054C25.7112 14.1783 25.7064 13.8408 25.7728 13.2881Z" fill="#8B72FC"/>
<path d="M18.828 12.2775C19.0418 12.4212 19.2906 12.5042 19.5478 12.5174C20.0669 12.535 20.4795 12.2191 21.2273 11.4777C21.692 11.0171 22.2734 10.4045 22.9069 9.63827C22.3356 9.5667 21.7557 9.64954 21.2273 9.87819L18.828 12.2775Z" fill="#8B72FC"/>
<path d="M15.7108 12.0362C15.9403 12.0381 16.1698 12.0261 16.3978 12.0002C16.7329 11.9583 17.0642 11.8904 17.3887 11.7971C18.2366 11.4855 19.0221 11.0251 19.7081 10.4375L17.1488 10.9173C16.7922 10.99 16.4612 11.1556 16.1891 11.3972C15.9892 11.5768 15.8267 11.7939 15.7108 12.0362Z" fill="#8B72FC"/>
<path d="M7.45957 16.0648C7.53155 17.2925 7.33321 17.6164 7.41718 18.1018C7.54613 18.5229 7.77569 18.9062 8.08602 19.2186C8.39635 19.531 8.77811 19.7632 9.19829 19.8949C10.5115 20.35 12.5006 19.4502 16.4243 17.6316C16.837 17.4301 17.2887 17.3209 17.7479 17.3117C18.3564 17.3089 18.9524 17.485 19.4618 17.8179C17.2674 18.8181 15.1389 19.9569 13.0892 21.2274C11.0346 22.5014 8.7768 25.1031 7.22364 26.3379C6.05676 26.1676 5.34656 24.692 4.17969 24.5216L5.25858 22.3806C5.98113 19.9456 6.35067 17.4195 6.35589 14.8795C6.48187 14.8464 6.61325 14.839 6.74215 14.8578C6.87106 14.8766 6.99483 14.9213 7.10607 14.9891C7.36679 15.1778 7.42758 15.509 7.45957 16.0648Z" fill="#8B72FC"/>
<path d="M14.4752 15.8394C14.2397 15.7357 13.9804 15.6978 13.725 15.7298C13.2107 15.8034 12.8596 16.1873 12.255 17.0471C11.8783 17.5829 11.4144 18.2875 10.9258 19.1513C11.5002 19.1212 12.0561 18.9378 12.5357 18.6202L14.4752 15.8394Z" fill="#8B72FC"/>
<path d="M17.5862 15.5273C17.3597 15.567 17.1359 15.6204 16.916 15.6873C16.5935 15.7875 16.2793 15.9127 15.9762 16.0616C15.1971 16.517 14.5054 17.1077 13.9336 17.806L16.3665 16.8846C16.7044 16.7506 17.0009 16.5299 17.2263 16.2448C17.3925 16.0318 17.5148 15.7879 17.5862 15.5273Z" fill="#8B72FC"/>
</svg>
